# xmcd CD database file
#
# Track frame offsets:
#	150
#	12642
#	28935
#	41188
#	50687
#	67702
#	79029
#	95338
#	106247
#	119832
#
# Disc length: 1760 seconds
#
# Revision: 0
# Processed by: cddbd v1.5.2PL0 Copyright (c) Steve Scherf et al.
# Submitted via: CDex 1.70beta2
#
DISCID=8606de0a
DTITLE=Fahey, Mike - Cdn. - OVM - Mike Fahey
DYEAR=1900
DGENRE=Country
TTITLE0=I've Gotten Over the Memory of You
TTITLE1=Ballad of An Old Man
TTITLE2=O Fall To Peices (Wanda Logan)
TTITLE3=Gone Is the Only Love I knew
TTITLE4=Country Songs
TTITLE5=Wabash Cannon Ball
TTITLE6=Sweet Memories of You and Me
TTITLE7=Route 66
TTITLE8=Trains Don't Go There anymore
TTITLE9=Boot Scootin' Boogie
EXTD=
EXTT0=
EXTT1=
EXTT2=
EXTT3=
EXTT4=
EXTT5=
EXTT6=
EXTT7=
EXTT8=
EXTT9=
PLAYORDER=
